<?xml version="1.0" encoding="UTF-8"?>
<svg id="Layer_1" data-name="Layer 1" xmlns="http://www.w3.org/2000/svg" viewBox="0 0 100 100">
  <path d="M44.43,2.37C21.35,2.37,2.64,21.08,2.64,44.16s18.71,41.79,41.79,41.79,41.79-18.71,41.79-41.79S67.51,2.37,44.43,2.37ZM44.43,75.95c-17.53,0-31.79-14.26-31.79-31.79s14.26-31.79,31.79-31.79,31.79,14.26,31.79,31.79-14.26,31.79-31.79,31.79Z" style="fill: #165dfb;"/>
  <path d="M57.47,67.81l.81-1.87c1.43-3.3,4.04-5.95,7.32-7.42l2.5-1.12c.88-.4,1.26-1.44.86-2.32-.17-.38-.48-.68-.86-.86l-2.36-1.05c-3.36-1.51-6.02-4.26-7.42-7.67l-.83-2.01c-.34-.86-1.31-1.28-2.16-.94-.43.17-.77.51-.94.94l-.83,2.01c-1.4,3.41-4.06,6.16-7.42,7.67l-2.37,1.06c-.88.41-1.26,1.44-.85,2.32.17.38.48.68.85.85l2.51,1.11c3.28,1.47,5.89,4.12,7.32,7.42l.81,1.87c.59,1.37,2.48,1.37,3.08,0" style="fill: #00c950;"/>
  <path d="M85.7,96.61l.81-1.87c1.43-3.3,4.04-5.95,7.32-7.42l2.5-1.12c.88-.4,1.26-1.44.86-2.32-.17-.38-.48-.68-.86-.86l-2.36-1.05c-3.36-1.51-6.02-4.26-7.42-7.67l-.83-2.01c-.34-.86-1.31-1.28-2.16-.94-.43.17-.77.51-.94.94l-.83,2.01c-1.4,3.41-4.06,6.16-7.42,7.67l-2.37,1.06c-.88.41-1.26,1.44-.85,2.32.17.38.48.68.85.85l2.51,1.11c3.28,1.47,5.89,4.12,7.32,7.42l.81,1.87c.59,1.37,2.48,1.37,3.08,0" style="fill: #ac47ff;"/>
</svg>