<?xml version="1.0" encoding="UTF-8"?>
<svg id="Layer_1" data-name="Layer 1" xmlns="http://www.w3.org/2000/svg" viewBox="0 0 100 100">
  <path d="M50,3C24.04,3,3,24.04,3,50s21.04,47,47,47,47-21.04,47-47S75.96,3,50,3ZM50,85.75c-19.71,0-35.75-16.04-35.75-35.75S30.29,14.25,50,14.25s35.75,16.04,35.75,35.75-16.04,35.75-35.75,35.75Z" style="fill: #165dfb;"/>
  <path d="M89.13,96.41l.47-1.08c.83-1.91,2.34-3.44,4.24-4.29l1.45-.65c.51-.23.73-.83.5-1.34-.1-.22-.28-.4-.5-.5l-1.37-.61c-1.95-.88-3.48-2.46-4.3-4.44l-.48-1.17c-.19-.5-.76-.74-1.25-.55-.25.1-.45.3-.55.55l-.48,1.16c-.81,1.98-2.35,3.56-4.29,4.44l-1.37.61c-.51.23-.73.84-.49,1.34.1.22.28.39.49.49l1.45.64c1.9.85,3.41,2.38,4.23,4.3l.47,1.08c.34.79,1.44.79,1.78,0" style="fill: #ac47ff;"/>
  <path d="M70.22,76.95l.47-1.08c.83-1.91,2.34-3.44,4.24-4.29l1.45-.65c.51-.23.73-.83.5-1.34-.1-.22-.28-.4-.5-.5l-1.37-.61c-1.95-.88-3.48-2.46-4.3-4.44l-.48-1.17c-.19-.5-.76-.74-1.25-.55-.25.1-.45.3-.55.55l-.48,1.16c-.81,1.98-2.35,3.56-4.29,4.44l-1.37.61c-.51.23-.73.84-.49,1.34.1.22.28.39.49.49l1.45.64c1.9.85,3.41,2.38,4.23,4.3l.47,1.08c.34.79,1.44.79,1.78,0" style="fill: #00c950;"/>
  <path d="M60.49,67l.47-1.08c.83-1.91,2.34-3.44,4.24-4.29l1.45-.65c.51-.23.73-.83.5-1.34-.1-.22-.28-.4-.5-.5l-1.37-.61c-1.95-.88-3.48-2.46-4.3-4.44l-.48-1.17c-.19-.5-.76-.74-1.25-.55-.25.1-.45.3-.55.55l-.48,1.16c-.81,1.98-2.35,3.56-4.29,4.44l-1.37.61c-.51.23-.73.84-.49,1.34.1.22.28.39.49.49l1.45.64c1.9.85,3.41,2.38,4.23,4.3l.47,1.08c.34.79,1.44.79,1.78,0" style="fill: #fec700;"/>
  <path d="M50.89,57.05l.47-1.08c.83-1.91,2.34-3.44,4.24-4.29l1.45-.65c.51-.23.73-.83.5-1.34-.1-.22-.28-.4-.5-.5l-1.37-.61c-1.95-.88-3.48-2.46-4.3-4.44l-.48-1.17c-.19-.5-.76-.74-1.25-.55-.25.1-.45.3-.55.55l-.48,1.16c-.81,1.98-2.35,3.56-4.29,4.44l-1.37.61c-.51.23-.73.84-.49,1.34.1.22.28.39.49.49l1.45.64c1.9.85,3.41,2.38,4.23,4.3l.47,1.08c.34.79,1.44.79,1.78,0" style="fill: #fa2c37;"/>
</svg>