<svg xmlns="http://www.w3.org/2000/svg"
     width="256" height="256"
     viewBox="0 0 256 256">
<defs>
  <linearGradient id="bgGradient" x1="0%" y1="0%" x2="100%" y2="100%">
    <stop offset="0%" stop-color="#7B68EE" stop-opacity="1" />
    <stop offset="100%" stop-color="#FF1493" stop-opacity="1" />
  </linearGradient>
</defs>
  <rect x="0" y="0"
        width="256" height="256"
        rx="48" ry="48"
        fill="url(#bgGradient)" />
  <g transform="
      translate(128.0,128.0)
      scale(7.466666666666666)
      translate(-12.0,-12.0)
  ">
<path xmlns="http://www.w3.org/2000/svg" fill="white" d="m20.467 8.694l.246-.566a4.36 4.36 0 0 1 2.22-2.25l.759-.339a.53.53 0 0 0 0-.963l-.717-.319a4.37 4.37 0 0 1-2.251-2.326l-.253-.611a.506.506 0 0 0-.942 0l-.253.61a4.37 4.37 0 0 1-2.25 2.327l-.718.32a.53.53 0 0 0 0 .962l.76.338a4.36 4.36 0 0 1 2.219 2.251l.246.566c.18.414.753.414.934 0M2 4a1 1 0 0 1 1-1h11v2H4v14h16v-8h2v9a1 1 0 0 1-1 1H3a1 1 0 0 1-1-1zm5 4h10v3h-2v-1h-2v4h1.5v2h-5v-2H11v-4H9v1H7z" />
  </g>
</svg>